  0
SECTION
  2
HEADER
  9
$ACADVER
  1
AC1009
  9
$DWGCODEPAGE
  3
ansi_1252
  9
$INSBASE
 10
0.0
 20
0.0
 30
0.0
  9
$EXTMIN
 10
0.0
 20
0.0
 30
0.0
  9
$EXTMAX
 10
1.5
 20
2.0
 30
0.0
  9
$LIMMIN
 10
0.0
 20
0.0
  9
$LIMMAX
 10
12.0
 20
9.0
  9
$ORTHOMODE
 70
     0
  9
$REGENMODE
 70
     1
  9
$FILLMODE
 70
     1
  9
$QTEXTMODE
 70
     0
  9
$MIRRTEXT
 70
     1
  9
$DRAGMODE
 70
     2
  9
$LTSCALE
 40
1.0
  9
$OSMODE
 70
    37
  9
$ATTMODE
 70
     1
  9
$TEXTSIZE
 40
0.2
  9
$TRACEWID
 40
0.05
  9
$TEXTSTYLE
  7
STANDARD
  9
$CLAYER
  8
0
  9
$CELTYPE
  6
BYLAYER
  9
$CECOLOR
 62
   256
  9
$DIMSCALE
 40
1.0
  9
$DIMASZ
 40
0.18
  9
$DIMEXO
 40
0.0625
  9
$DIMDLI
 40
0.38
  9
$DIMRND
 40
0.0
  9
$DIMDLE
 40
0.0
  9
$DIMEXE
 40
0.18
  9
$DIMTP
 40
0.0
  9
$DIMTM
 40
0.0
  9
$DIMTXT
 40
0.18
  9
$DIMCEN
 40
0.09
  9
$DIMTSZ
 40
0.0
  9
$DIMTOL
 70
     0
  9
$DIMLIM
 70
     0
  9
$DIMTIH
 70
     1
  9
$DIMTOH
 70
     1
  9
$DIMSE1
 70
     0
  9
$DIMSE2
 70
     0
  9
$DIMTAD
 70
     0
  9
$DIMZIN
 70
     0
  9
$DIMBLK
  1

  9
$DIMASO
 70
     1
  9
$DIMSHO
 70
     1
  9
$DIMPOST
  1

  9
$DIMAPOST
  1

  9
$DIMALT
 70
     0
  9
$DIMALTD
 70
     2
  9
$DIMALTF
 40
25.4
  9
$DIMLFAC
 40
1.0
  9
$DIMTOFL
 70
     0
  9
$DIMTVP
 40
0.0
  9
$DIMTIX
 70
     0
  9
$DIMSOXD
 70
     0
  9
$DIMSAH
 70
     0
  9
$DIMBLK1
  1

  9
$DIMBLK2
  1

  9
$DIMSTYLE
  2
STANDARD
  9
$DIMCLRD
 70
     0
  9
$DIMCLRE
 70
     0
  9
$DIMCLRT
 70
     0
  9
$DIMTFAC
 40
1.0
  9
$DIMGAP
 40
0.09
  9
$LUNITS
 70
     2
  9
$LUPREC
 70
     4
  9
$SKETCHINC
 40
0.1
  9
$FILLETRAD
 40
0.5
  9
$AUNITS
 70
     0
  9
$AUPREC
 70
     0
  9
$MENU
  1
.
  9
$ELEVATION
 40
0.0
  9
$PELEVATION
 40
0.0
  9
$THICKNESS
 40
0.0
  9
$LIMCHECK
 70
     0
  9
$CHAMFERA
 40
0.0
  9
$CHAMFERB
 40
0.0
  9
$SKPOLY
 70
     0
  9
$TDCREATE
 40
2454910.5
  9
$TDUPDATE
 40
2461279.975422732
  9
$TDINDWG
 40
0.0000000116
  9
$TDUSRTIMER
 40
0.0000000116
  9
$USRTIMER
 70
     1
  9
$ANGBASE
 50
0.0
  9
$ANGDIR
 70
     0
  9
$PDMODE
 70
     0
  9
$PDSIZE
 40
0.0
  9
$PLINEWID
 40
0.0
  9
$COORDS
 70
     1
  9
$SPLFRAME
 70
     0
  9
$SPLINETYPE
 70
     6
  9
$SPLINESEGS
 70
     8
  9
$ATTDIA
 70
     0
  9
$ATTREQ
 70
     1
  9
$HANDLING
 70
     1
  9
$HANDSEED
  5
DC
  9
$SURFTAB1
 70
     6
  9
$SURFTAB2
 70
     6
  9
$SURFTYPE
 70
     6
  9
$SURFU
 70
     6
  9
$SURFV
 70
     6
  9
$UCSNAME
  2

  9
$UCSORG
 10
0.0
 20
0.0
 30
0.0
  9
$UCSXDIR
 10
1.0
 20
0.0
 30
0.0
  9
$UCSYDIR
 10
0.0
 20
1.0
 30
0.0
  9
$PUCSNAME
  2

  9
$PUCSORG
 10
0.0
 20
0.0
 30
0.0
  9
$PUCSXDIR
 10
1.0
 20
0.0
 30
0.0
  9
$PUCSYDIR
 10
0.0
 20
1.0
 30
0.0
  9
$USERI1
 70
     0
  9
$USERI2
 70
     0
  9
$USERI3
 70
     0
  9
$USERI4
 70
     0
  9
$USERI5
 70
     0
  9
$USERR1
 40
0.0
  9
$USERR2
 40
0.0
  9
$USERR3
 40
0.0
  9
$USERR4
 40
0.0
  9
$USERR5
 40
0.0
  9
$WORLDVIEW
 70
     1
  9
$SHADEDGE
 70
     3
  9
$SHADEDIF
 70
    70
  9
$TILEMODE
 70
     1
  9
$MAXACTVP
 70
    64
  9
$PLIMCHECK
 70
     0
  9
$PEXTMIN
 10
1.000000000000000E+20
 20
1.000000000000000E+20
 30
1.000000000000000E+20
  9
$PEXTMAX
 10
-1.000000000000000E+20
 20
-1.000000000000000E+20
 30
-1.000000000000000E+20
  9
$PLIMMIN
 10
0.0
 20
0.0
  9
$PLIMMAX
 10
12.0
 20
9.0
  9
$UNITMODE
 70
     0
  9
$VISRETAIN
 70
     1
  9
$PLINEGEN
 70
     0
  9
$PSLTSCALE
 70
     1
  0
ENDSEC
  0
SECTION
  2
TABLES
  0
TABLE
  2
VPORT
 70
     1
  0
VPORT
  2
*ACTIVE
 70
     0
 10
0.0
 20
0.0
 11
1.0
 21
1.0
 12
10.42990654205607
 22
4.5
 13
0.0
 23
0.0
 14
0.5
 24
0.5
 15
0.5
 25
0.5
 16
0.0
 26
0.0
 36
1.0
 17
0.0
 27
0.0
 37
0.0
 40
9.0
 41
1.972972972850329
 42
50.0
 43
0.0
 44
0.0
 50
0.0
 51
0.0
 71
     0
 72
   100
 73
     1
 74
     3
 75
     0
 76
     0
 77
     0
 78
     0
  0
ENDTAB
  0
TABLE
  2
LTYPE
 70
     2
  0
LTYPE
  2
CONTINUOUS
 70
     0
  3
Solid line
 72
    65
 73
     0
 40
0.0
  0
LTYPE
  2
CONTINUOUS2
 70
     0
  3
Solid Line
 72
    65
 73
     0
 40
0.0
  0
ENDTAB
  0
TABLE
  2
LAYER
 70
     2
  0
LAYER
  2
0
 70
     0
 62
     7
  6
CONTINUOUS
  0
LAYER
  2
LAYER_1
 70
     0
 62
    18
  6
CONTINUOUS
  0
ENDTAB
  0
TABLE
  2
STYLE
 70
     1
  0
STYLE
  2
STANDARD
 70
     0
 40
0.0
 41
1.0
 50
0.0
 71
     0
 42
0.2
  3
txt
  4

  0
ENDTAB
  0
TABLE
  2
VIEW
 70
     0
  0
ENDTAB
  0
TABLE
  2
UCS
 70
     0
  0
ENDTAB
  0
TABLE
  2
APPID
 70
     1
  0
APPID
  2
ACAD
 70
     0
  0
ENDTAB
  0
TABLE
  2
DIMSTYLE
 70
     1
  0
DIMSTYLE
  2
STANDARD
 70
     0
  3

  4

  5

  6

  7

 40
1.0
 41
0.18
 42
0.0625
 43
0.38
 44
0.18
 45
0.0
 46
0.0
 47
0.0
 48
0.0
140
0.18
141
0.09
142
0.0
143
25.4
144
1.0
145
0.0
146
1.0
147
0.09
 71
     0
 72
     0
 73
     1
 74
     1
 75
     0
 76
     0
 77
     0
 78
     0
170
     0
171
     2
172
     0
173
     0
174
     0
175
     0
176
     0
177
     0
178
     0
  0
ENDTAB
  0
ENDSEC
  0
SECTION
  2
BLOCKS
  0
BLOCK
  8
0
  2
$MODEL_SPACE
 70
     0
 10
0.0
 20
0.0
 30
0.0
  3
$MODEL_SPACE
  1

  0
ENDBLK
  5
21
  8
0
  0
BLOCK
 67
     1
  8
0
  2
$PAPER_SPACE
 70
     0
 10
0.0
 20
0.0
 30
0.0
  3
$PAPER_SPACE
  1

  0
ENDBLK
  5
1D
 67
     1
  8
0
  0
ENDSEC
  0
SECTION
  2
ENTITIES
  0
POLYLINE
  5
70
  8
LAYER_1
 66
     1
 10
0.0
 20
0.0
 30
0.0
  0
VERTEX
  5
78
  8
LAYER_1
 10
0.0
 20
0.0
 30
0.0
  0
VERTEX
  5
79
  8
LAYER_1
 10
0.0272152344856618
 20
0.0166638917702981
 30
0.0
  0
VERTEX
  5
7A
  8
LAYER_1
 10
0.0533723412450669
 20
0.0336314531766646
 30
0.0
  0
VERTEX
  5
7B
  8
LAYER_1
 10
0.0784955204654078
 20
0.0508887046619496
 30
0.0
  0
VERTEX
  5
7C
  8
LAYER_1
 10
0.1026089723338771
 20
0.0684216666690033
 30
0.0
  0
VERTEX
  5
7D
  8
LAYER_1
 10
0.1257368970376673
 20
0.0862163596406758
 30
0.0
  0
VERTEX
  5
7E
  8
LAYER_1
 10
0.147903494763971
 20
0.1042588040198172
 30
0.0
  0
VERTEX
  5
7F
  8
LAYER_1
 10
0.1691329656999807
 20
0.1225350202492776
 30
0.0
  0
VERTEX
  5
80
  8
LAYER_1
 10
0.1894495100328889
 20
0.1410310287719072
 30
0.0
  0
VERTEX
  5
81
  8
LAYER_1
 10
0.2088773279498882
 20
0.1597328500305561
 30
0.0
  0
VERTEX
  5
82
  8
LAYER_1
 10
0.2274406196381711
 20
0.1786265044680743
 30
0.0
  0
VERTEX
  5
83
  8
LAYER_1
 10
0.2451635852849302
 20
0.1976980125273121
 30
0.0
  0
VERTEX
  5
84
  8
LAYER_1
 10
0.2620704250773581
 20
0.2169333946511196
 30
0.0
  0
VERTEX
  5
85
  8
LAYER_1
 10
0.2781853392026471
 20
0.2363186712823468
 30
0.0
  0
VERTEX
  5
86
  8
LAYER_1
 10
0.2935325278479901
 20
0.255839862863844
 30
0.0
  0
VERTEX
  5
87
  8
LAYER_1
 10
0.3081361912005793
 20
0.2754829898384611
 30
0.0
  0
VERTEX
  5
88
  8
LAYER_1
 10
0.3220205294476075
 20
0.2952340726490484
 30
0.0
  0
VERTEX
  5
89
  8
LAYER_1
 10
0.335209742776267
 20
0.315079131738456
 30
0.0
  0
VERTEX
  5
8A
  8
LAYER_1
 10
0.3477280313737506
 20
0.3350041875495341
 30
0.0
  0
VERTEX
  5
8B
  8
LAYER_1
 10
0.3595995954272507
 20
0.3549952605251326
 30
0.0
  0
VERTEX
  5
8C
  8
LAYER_1
 10
0.3708486351239599
 20
0.3750383711081018
 30
0.0
  0
VERTEX
  5
8D
  8
LAYER_1
 10
0.3814993506510707
 20
0.3951195397412918
 30
0.0
  0
VERTEX
  5
8E
  8
LAYER_1
 10
0.3915759421957756
 20
0.4152247868675527
 30
0.0
  0
VERTEX
  5
8F
  8
LAYER_1
 10
0.4011026099452673
 20
0.4353401329297346
 30
0.0
  0
VERTEX
  5
90
  8
LAYER_1
 10
0.4101035540867382
 20
0.4554515983706877
 30
0.0
  0
VERTEX
  5
91
  8
LAYER_1
 10
0.4186029748073809
 20
0.475545203633262
 30
0.0
  0
VERTEX
  5
92
  8
LAYER_1
 10
0.426625072294388
 20
0.4956069691603078
 30
0.0
  0
VERTEX
  5
93
  8
LAYER_1
 10
0.4341940467349519
 20
0.5156229153946752
 30
0.0
  0
VERTEX
  5
94
  8
LAYER_1
 10
0.4413340983162651
 20
0.5355790627792141
 30
0.0
  0
VERTEX
  5
95
  8
LAYER_1
 10
0.4480694272255205
 20
0.5554614317567749
 30
0.0
  0
VERTEX
  5
96
  8
LAYER_1
 10
0.4544242336499102
 20
0.5752560427702076
 30
0.0
  0
VERTEX
  5
97
  8
LAYER_1
 10
0.4660890797928636
 20
0.614526072676089
 30
0.0
  0
VERTEX
  5
98
  8
LAYER_1
 10
0.4696179496420048
 20
0.6261962265495074
 30
0.0
  0
VERTEX
  5
99
  8
LAYER_1
 10
0.4732025764078093
 20
0.6359619849094216
 30
0.0
  0
VERTEX
  5
9A
  8
LAYER_1
 10
0.4770589716931013
 20
0.6439307236110863
 30
0.0
  0
VERTEX
  5
9B
  8
LAYER_1
 10
0.4791565861564377
 20
0.6472747655448422
 30
0.0
  0
VERTEX
  5
9C
  8
LAYER_1
 10
0.4814031471007051
 20
0.6502098185097562
 30
0.0
  0
VERTEX
  5
9D
  8
LAYER_1
 10
0.4838256559762564
 20
0.6527493044877353
 30
0.0
  0
VERTEX
  5
9E
  8
LAYER_1
 10
0.4864511142334447
 20
0.654906645460686
 30
0.0
  0
VERTEX
  5
9F
  8
LAYER_1
 10
0.489306523322623
 20
0.6566952634105153
 30
0.0
  0
VERTEX
  5
A0
  8
LAYER_1
 10
0.4924188846941442
 20
0.6581285803191301
 30
0.0
  0
VERTEX
  5
A1
  8
LAYER_1
 10
0.4958151997983615
 20
0.6592200181684372
 30
0.0
  0
VERTEX
  5
A2
  8
LAYER_1
 10
0.4995224700856279
 20
0.6599829989403433
 30
0.0
  0
VERTEX
  5
A3
  8
LAYER_1
 10
0.5035676970062963
 20
0.6604309446167552
 30
0.0
  0
VERTEX
  5
A4
  8
LAYER_1
 10
0.5079778820107198
 20
0.6605772771795799
 30
0.0
  0
VERTEX
  5
A5
  8
LAYER_1
 10
0.644639400314964
 20
0.6619383510417466
 30
0.0
  0
VERTEX
  5
A6
  8
LAYER_1
 10
0.7813009186192081
 20
0.6632994249039132
 30
0.0
  0
VERTEX
  5
A7
  8
LAYER_1
 10
0.7842153902402325
 20
0.6963161312520316
 30
0.0
  0
VERTEX
  5
A8
  8
LAYER_1
 10
0.787850271521815
 20
0.7285116537939138
 30
0.0
  0
VERTEX
  5
A9
  8
LAYER_1
 10
0.7921834768990061
 20
0.7598966917692385
 30
0.0
  0
VERTEX
  5
AA
  8
LAYER_1
 10
0.7971929208068566
 20
0.7904819444176834
 30
0.0
  0
VERTEX
  5
AB
  8
LAYER_1
 10
0.802856517680417
 20
0.8202781109789269
 30
0.0
  0
VERTEX
  5
AC
  8
LAYER_1
 10
0.809152181954738
 20
0.8492958906926471
 30
0.0
  0
VERTEX
  5
AD
  8
LAYER_1
 10
0.8160578280648705
 20
0.8775459827985223
 30
0.0
  0
VERTEX
  5
AE
  8
LAYER_1
 10
0.8235513704458649
 20
0.9050390865362304
 30
0.0
  0
VERTEX
  5
AF
  8
LAYER_1
 10
0.8316107235327719
 20
0.93178590114545
 30
0.0
  0
VERTEX
  5
B0
  8
LAYER_1
 10
0.8402138017606421
 20
0.9577971258658591
 30
0.0
  0
VERTEX
  5
B1
  8
LAYER_1
 10
0.8493385195645261
 20
0.9830834599371359
 30
0.0
  0
VERTEX
  5
B2
  8
LAYER_1
 10
0.8589627913794747
 20
1.007655602598958
 30
0.0
  0
VERTEX
  5
B3
  8
LAYER_1
 10
0.8690645316405385
 20
1.031524253091005
 30
0.0
  0
VERTEX
  5
B4
  8
LAYER_1
 10
0.8796216547827681
 20
1.054700110652954
 30
0.0
  0
VERTEX
  5
B5
  8
LAYER_1
 10
0.8906120752412141
 20
1.077193874524484
 30
0.0
  0
VERTEX
  5
B6
  8
LAYER_1
 10
0.9020137074509273
 20
1.099016243945272
 30
0.0
  0
VERTEX
  5
B7
  8
LAYER_1
 10
0.9138044658469584
 20
1.120177918154997
 30
0.0
  0
VERTEX
  5
B8
  8
LAYER_1
 10
0.9259622648643577
 20
1.140689596393337
 30
0.0
  0
VERTEX
  5
B9
  8
LAYER_1
 10
0.9384650189381761
 20
1.16056197789997
 30
0.0
  0
VERTEX
  5
BA
  8
LAYER_1
 10
0.9512906425034643
 20
1.179805761914575
 30
0.0
  0
VERTEX
  5
BB
  8
LAYER_1
 10
0.9644170499952729
 20
1.198431647676828
 30
0.0
  0
VERTEX
  5
BC
  8
LAYER_1
 10
0.9778221558486524
 20
1.21645033442641
 30
0.0
  0
VERTEX
  5
BD
  8
LAYER_1
 10
0.9914838744986536
 20
1.233872521402998
 30
0.0
  0
VERTEX
  5
BE
  8
LAYER_1
 10
1.005380120380327
 20
1.25070890784627
 30
0.0
  0
VERTEX
  5
BF
  8
LAYER_1
 10
1.019488807928724
 20
1.266970192995904
 30
0.0
  0
VERTEX
  5
C0
  8
LAYER_1
 10
1.033787851578894
 20
1.282667076091579
 30
0.0
  0
VERTEX
  5
C1
  8
LAYER_1
 10
1.048255165765888
 20
1.297810256372973
 30
0.0
  0
VERTEX
  5
C2
  8
LAYER_1
 10
1.062868664924757
 20
1.312410433079763
 30
0.0
  0
VERTEX
  5
C3
  8
LAYER_1
 10
1.077606263490552
 20
1.326478305451629
 30
0.0
  0
VERTEX
  5
C4
  8
LAYER_1
 10
1.092445875898323
 20
1.340024572728247
 30
0.0
  0
VERTEX
  5
C5
  8
LAYER_1
 10
1.107365416583121
 20
1.353059934149297
 30
0.0
  0
VERTEX
  5
C6
  8
LAYER_1
 10
1.122342799979996
 20
1.365595088954457
 30
0.0
  0
VERTEX
  5
C7
  8
LAYER_1
 10
1.137355940524
 20
1.377640736383405
 30
0.0
  0
VERTEX
  5
C8
  8
LAYER_1
 10
1.152382752650182
 20
1.389207575675819
 30
0.0
  0
VERTEX
  5
C9
  8
LAYER_1
 10
1.167401150793594
 20
1.400306306071377
 30
0.0
  0
VERTEX
  5
CA
  8
LAYER_1
 10
1.182389049389285
 20
1.410947626809758
 30
0.0
  0
VERTEX
  5
CB
  8
LAYER_1
 10
1.197324362872308
 20
1.421142237130639
 30
0.0
  0
VERTEX
  5
CC
  8
LAYER_1
 10
1.212185005677712
 20
1.430900836273699
 30
0.0
  0
VERTEX
  5
CD
  8
LAYER_1
 10
1.241593936995866
 20
1.449152797985067
 30
0.0
  0
VERTEX
  5
CE
  8
LAYER_1
 10
1.270439158824154
 20
1.465789105861289
 30
0.0
  0
VERTEX
  5
CF
  8
LAYER_1
 10
1.29854398664298
 20
1.48089535381979
 30
0.0
  0
VERTEX
  5
D0
  8
LAYER_1
 10
1.32573173593275
 20
1.494557135777996
 30
0.0
  0
VERTEX
  5
D1
  8
LAYER_1
 10
1.351825722173869
 20
1.506860045653331
 30
0.0
  0
VERTEX
  5
D2
  8
LAYER_1
 10
1.376649260846742
 20
1.517889677363222
 30
0.0
  0
VERTEX
  5
D3
  8
LAYER_1
 10
1.400025667431774
 20
1.527731624825094
 30
0.0
  0
VERTEX
  5
D4
  8
LAYER_1
 10
1.441730346259936
 20
1.544194842674483
 30
0.0
  0
VERTEX
  5
D5
  8
LAYER_1
 10
1.475526282501598
 20
1.556934450540902
 30
0.0
  0
VERTEX
  5
D6
  8
LAYER_1
 10
1.489016760853504
 20
1.562121885524061
 30
0.0
  0
VERTEX
  5
D7
  8
LAYER_1
 10
1.5
 20
1.566635199763755
 30
0.0
  0
VERTEX
  5
D8
  8
LAYER_1
 10
1.447707739665039
 20
2.0
 30
0.0
  0
SEQEND
  5
DB
  8
LAYER_1
  0
ENDSEC
  0
EOF
