  0
SECTION
  2
HEADER
  9
$ACADVER
  1
AC1009
  0
ENDSEC
  0
SECTION
  2
ENTITIES
  0
LWPOLYLINE
  8
PROFILE
 90
19
 70
0
 10
0
 20
0
 10
0.001433
 20
0.00024
 10
0.011617
 20
0.066826
 10
0.027734
 20
0.132229
 10
0.049654
 20
0.195923
 10
0.077201
 20
0.257394
 10
0.110151
 20
0.316144
 10
0.14824
 20
0.371702
 10
0.19116
 20
0.423617
 10
0.238566
 20
0.471473
 10
0.290073
 20
0.514882
 10
0.345268
 20
0.553495
 10
0.403705
 20
0.586999
 10
0.464912
 20
0.615126
 10
0.528395
 20
0.637647
 10
0.593644
 20
0.654382
 10
0.66013
 20
0.665195
 10
0.727319
 20
0.669998
 10
0.728272
 20
0.971246
  0
ENDSEC
  0
EOF
