  0
SECTION
  2
HEADER
  9
$ACADVER
  1
AC1009
  0
ENDSEC
  0
SECTION
  2
ENTITIES
  0
LWPOLYLINE
  8
PROFILE
 90
35
 70
0
 10
0
 20
0
 10
0.000011
 20
-0.001765
 10
0.025612
 20
-0.000397
 10
0.051059
 20
0.002717
 10
0.076234
 20
0.007563
 10
0.101019
 20
0.014118
 10
0.125299
 20
0.02235
 10
0.148959
 20
0.032223
 10
0.171889
 20
0.043688
 10
0.193983
 20
0.056694
 10
0.215136
 20
0.071179
 10
0.23525
 20
0.087076
 10
0.254231
 20
0.104309
 10
0.27199
 20
0.122799
 10
0.288444
 20
0.14246
 10
0.303516
 20
0.163198
 10
0.317136
 20
0.184918
 10
0.32924
 20
0.207518
 10
0.384448
 20
0.270781
 10
0.443109
 20
0.330856
 10
0.505039
 20
0.387554
 10
0.570045
 20
0.440698
 10
0.637923
 20
0.490121
 10
0.70846
 20
0.535669
 10
0.781435
 20
0.577198
 10
0.856619
 20
0.614579
 10
0.933777
 20
0.647695
 10
1.012668
 20
0.676442
 10
1.093043
 20
0.700729
 10
1.174651
 20
0.720481
 10
1.257237
 20
0.735635
 10
1.340541
 20
0.746145
 10
1.424303
 20
0.751977
 10
1.50826
 20
0.753113
 10
1.492263
 20
1.406778
  0
ENDSEC
  0
EOF
