  0
SECTION
  2
HEADER
  9
$ACADVER
  1
AC1009
  0
ENDSEC
  0
SECTION
  2
ENTITIES
  0
ARC
  8
PROFILE
 10
1.309638
 20
7.066946
 30
0
 40
0.568263
 50
302.121895
 51
64.864834
  0
ARC
  8
PROFILE
 10
1.717271
 20
8.227138
 30
0
 40
0.666799
 50
167.243231
 51
255.561506
  0
ARC
  8
PROFILE
 10
0.801191
 20
9.318483
 30
0
 40
0.980794
 50
285.720457
 51
318.013506
  0
LINE
  8
PROFILE
 10
1.530218
 20
8.662376
 30
0
 11
1.533814
 21
8.666842
 31
0
  0
LINE
  8
PROFILE
 10
1.533814
 20
8.666842
 30
0
 11
1.536811
 21
8.671544
 31
0
  0
LINE
  8
PROFILE
 10
1.536811
 20
8.671544
 30
0
 11
1.539248
 21
8.676464
 31
0
  0
LINE
  8
PROFILE
 10
1.539248
 20
8.676464
 30
0
 11
1.541165
 21
8.681587
 31
0
  0
LINE
  8
PROFILE
 10
1.541165
 20
8.681587
 30
0
 11
1.542601
 21
8.686897
 31
0
  0
LINE
  8
PROFILE
 10
1.542601
 20
8.686897
 30
0
 11
1.543598
 21
8.69238
 31
0
  0
LINE
  8
PROFILE
 10
1.543598
 20
8.69238
 30
0
 11
1.544195
 21
8.698018
 31
0
  0
LINE
  8
PROFILE
 10
1.544195
 20
8.698018
 30
0
 11
1.544432
 21
8.703798
 31
0
  0
LINE
  8
PROFILE
 10
1.544432
 20
8.703798
 30
0
 11
1.544349
 21
8.709702
 31
0
  0
LINE
  8
PROFILE
 10
1.544349
 20
8.709702
 30
0
 11
1.543985
 21
8.715716
 31
0
  0
LINE
  8
PROFILE
 10
1.543985
 20
8.715716
 30
0
 11
1.543382
 21
8.721823
 31
0
  0
LINE
  8
PROFILE
 10
1.543382
 20
8.721823
 30
0
 11
1.542579
 21
8.728009
 31
0
  0
LINE
  8
PROFILE
 10
1.542579
 20
8.728009
 30
0
 11
1.541616
 21
8.734257
 31
0
  0
LINE
  8
PROFILE
 10
1.541616
 20
8.734257
 30
0
 11
1.540533
 21
8.740552
 31
0
  0
LINE
  8
PROFILE
 10
1.540533
 20
8.740552
 30
0
 11
1.53937
 21
8.746878
 31
0
  0
LINE
  8
PROFILE
 10
1.53937
 20
8.746878
 30
0
 11
1.538167
 21
8.75322
 31
0
  0
LINE
  8
PROFILE
 10
1.538167
 20
8.75322
 30
0
 11
1.536964
 21
8.759562
 31
0
  0
LINE
  8
PROFILE
 10
1.536964
 20
8.759562
 30
0
 11
1.535801
 21
8.765888
 31
0
  0
LINE
  8
PROFILE
 10
1.535801
 20
8.765888
 30
0
 11
1.534718
 21
8.772183
 31
0
  0
LINE
  8
PROFILE
 10
1.534718
 20
8.772183
 30
0
 11
1.533754
 21
8.778431
 31
0
  0
LINE
  8
PROFILE
 10
1.533754
 20
8.778431
 30
0
 11
1.532951
 21
8.784616
 31
0
  0
LINE
  8
PROFILE
 10
1.532951
 20
8.784616
 30
0
 11
1.532348
 21
8.790724
 31
0
  0
LINE
  8
PROFILE
 10
1.532348
 20
8.790724
 30
0
 11
1.531985
 21
8.796737
 31
0
  0
LINE
  8
PROFILE
 10
1.531985
 20
8.796737
 30
0
 11
1.531902
 21
8.802642
 31
0
  0
ARC
  8
PROFILE
 10
1.369126
 20
8.739455
 30
0
 40
0.17461
 50
21.215499
 51
85.589001
  0
ARC
  8
PROFILE
 10
1.718275
 20
9.505051
 30
0
 40
0.680136
 50
135.477425
 51
240.422079
  0
ARC
  8
PROFILE
 10
0.133025
 20
11.342754
 30
0
 40
1.75
 50
308.958749
 51
62.909059
  0
ARC
  8
PROFILE
 10
1.015592
 20
12.958472
 30
0
 40
0.103251
 50
140.392643
 51
213.988424
  0
ARC
  8
PROFILE
 10
0.119856
 20
15.64003
 30
0
 40
2.740114
 50
287.329511
 51
308.236973
  0
ARC
  8
PROFILE
 10
1.648161
 20
13.605862
 30
0
 40
0.205011
 50
324.833868
 51
35.11741
  0
ARC
  8
PROFILE
 10
1.276226
 20
13.202931
 30
0
 40
0.75
 50
43.986326
 51
88.70596
  0
LINE
  8
PROFILE
 10
1.293164
 20
13.95274
 30
0
 11
1.282159
 21
13.967947
 31
0
  0
LINE
  8
PROFILE
 10
1.282159
 20
13.967947
 30
0
 11
1.271103
 21
13.983118
 31
0
  0
LINE
  8
PROFILE
 10
1.271103
 20
13.983118
 30
0
 11
1.26015
 21
13.998361
 31
0
  0
LINE
  8
PROFILE
 10
1.26015
 20
13.998361
 30
0
 11
1.249452
 21
14.013782
 31
0
  0
LINE
  8
PROFILE
 10
1.249452
 20
14.013782
 30
0
 11
1.239036
 21
14.029398
 31
0
  0
LINE
  8
PROFILE
 10
1.239036
 20
14.029398
 30
0
 11
1.228828
 21
14.045153
 31
0
  0
LINE
  8
PROFILE
 10
1.228828
 20
14.045153
 30
0
 11
1.21883
 21
14.061042
 31
0
  0
LINE
  8
PROFILE
 10
1.21883
 20
14.061042
 30
0
 11
1.209045
 21
14.07706
 31
0
  0
LINE
  8
PROFILE
 10
1.209045
 20
14.07706
 30
0
 11
1.199473
 21
14.093208
 31
0
  0
LINE
  8
PROFILE
 10
1.199473
 20
14.093208
 30
0
 11
1.190116
 21
14.109482
 31
0
  0
LINE
  8
PROFILE
 10
1.190116
 20
14.109482
 30
0
 11
1.180976
 21
14.125879
 31
0
  0
LINE
  8
PROFILE
 10
1.180976
 20
14.125879
 30
0
 11
1.172055
 21
14.142395
 31
0
  0
LINE
  8
PROFILE
 10
1.172055
 20
14.142395
 30
0
 11
1.163355
 21
14.159028
 31
0
  0
LINE
  8
PROFILE
 10
1.163355
 20
14.159028
 30
0
 11
1.154875
 21
14.175777
 31
0
  0
LINE
  8
PROFILE
 10
1.154875
 20
14.175777
 30
0
 11
1.146619
 21
14.192636
 31
0
  0
LINE
  8
PROFILE
 10
1.146619
 20
14.192636
 30
0
 11
1.138588
 21
14.209603
 31
0
  0
LINE
  8
PROFILE
 10
1.138588
 20
14.209603
 30
0
 11
1.130783
 21
14.226674
 31
0
  0
LINE
  8
PROFILE
 10
1.130783
 20
14.226674
 30
0
 11
1.123205
 21
14.24385
 31
0
  0
LINE
  8
PROFILE
 10
1.123205
 20
14.24385
 30
0
 11
1.115856
 21
14.261124
 31
0
  0
LINE
  8
PROFILE
 10
1.115856
 20
14.261124
 30
0
 11
1.108738
 21
14.278493
 31
0
  0
LINE
  8
PROFILE
 10
1.108738
 20
14.278493
 30
0
 11
1.101851
 21
14.295955
 31
0
  0
LINE
  8
PROFILE
 10
1.101851
 20
14.295955
 30
0
 11
1.095196
 21
14.313508
 31
0
  0
LINE
  8
PROFILE
 10
1.095196
 20
14.313508
 30
0
 11
1.088774
 21
14.331149
 31
0
  0
LINE
  8
PROFILE
 10
1.088774
 20
14.331149
 30
0
 11
1.082589
 21
14.348871
 31
0
  0
LINE
  8
PROFILE
 10
1.082589
 20
14.348871
 30
0
 11
1.076639
 21
14.366674
 31
0
  0
LINE
  8
PROFILE
 10
1.076639
 20
14.366674
 30
0
 11
1.070926
 21
14.384557
 31
0
  0
LINE
  8
PROFILE
 10
1.070926
 20
14.384557
 30
0
 11
1.06545
 21
14.402513
 31
0
  0
LINE
  8
PROFILE
 10
1.06545
 20
14.402513
 30
0
 11
1.060214
 21
14.420539
 31
0
  0
LINE
  8
PROFILE
 10
1.060214
 20
14.420539
 30
0
 11
1.055219
 21
14.438633
 31
0
  0
LINE
  8
PROFILE
 10
1.055219
 20
14.438633
 30
0
 11
1.050463
 21
14.456794
 31
0
  0
LINE
  8
PROFILE
 10
1.050463
 20
14.456794
 30
0
 11
1.04595
 21
14.475016
 31
0
  0
LINE
  8
PROFILE
 10
1.04595
 20
14.475016
 30
0
 11
1.041679
 21
14.493294
 31
0
  0
LINE
  8
PROFILE
 10
1.041679
 20
14.493294
 30
0
 11
1.037651
 21
14.511628
 31
0
  0
LINE
  8
PROFILE
 10
1.037651
 20
14.511628
 30
0
 11
1.033867
 21
14.530015
 31
0
  0
LINE
  8
PROFILE
 10
1.033867
 20
14.530015
 30
0
 11
1.030327
 21
14.548451
 31
0
  0
LINE
  8
PROFILE
 10
1.030327
 20
14.548451
 30
0
 11
1.027033
 21
14.566931
 31
0
  0
LINE
  8
PROFILE
 10
1.027033
 20
14.566931
 30
0
 11
1.023985
 21
14.585453
 31
0
  0
LINE
  8
PROFILE
 10
1.023985
 20
14.585453
 30
0
 11
1.021183
 21
14.604016
 31
0
  0
LINE
  8
PROFILE
 10
1.021183
 20
14.604016
 30
0
 11
1.018628
 21
14.622614
 31
0
  0
LINE
  8
PROFILE
 10
1.018628
 20
14.622614
 30
0
 11
1.01632
 21
14.641242
 31
0
  0
LINE
  8
PROFILE
 10
1.01632
 20
14.641242
 30
0
 11
1.01426
 21
14.6599
 31
0
  0
LINE
  8
PROFILE
 10
1.01426
 20
14.6599
 30
0
 11
1.012447
 21
14.678585
 31
0
  0
LINE
  8
PROFILE
 10
1.012447
 20
14.678585
 30
0
 11
1.010883
 21
14.697292
 31
0
  0
LINE
  8
PROFILE
 10
1.010883
 20
14.697292
 30
0
 11
1.009568
 21
14.716017
 31
0
  0
LINE
  8
PROFILE
 10
1.009568
 20
14.716017
 30
0
 11
1.008502
 21
14.734758
 31
0
  0
LINE
  8
PROFILE
 10
1.008502
 20
14.734758
 30
0
 11
1.007685
 21
14.753513
 31
0
  0
LINE
  8
PROFILE
 10
1.007685
 20
14.753513
 30
0
 11
1.007117
 21
14.772277
 31
0
  0
LINE
  8
PROFILE
 10
1.007117
 20
14.772277
 30
0
 11
1.006798
 21
14.791045
 31
0
  0
LINE
  8
PROFILE
 10
1.006798
 20
14.791045
 30
0
 11
1.006729
 21
14.809816
 31
0
  0
LINE
  8
PROFILE
 10
1.006729
 20
14.809816
 30
0
 11
1.006909
 21
14.828588
 31
0
  0
LINE
  8
PROFILE
 10
1.006909
 20
14.828588
 30
0
 11
1.007338
 21
14.847356
 31
0
  0
LINE
  8
PROFILE
 10
1.007338
 20
14.847356
 30
0
 11
1.008017
 21
14.866115
 31
0
  0
LINE
  8
PROFILE
 10
1.008017
 20
14.866115
 30
0
 11
1.008945
 21
14.884863
 31
0
  0
LINE
  8
PROFILE
 10
1.008945
 20
14.884863
 30
0
 11
1.010121
 21
14.903598
 31
0
  0
LINE
  8
PROFILE
 10
1.010121
 20
14.903598
 30
0
 11
1.011547
 21
14.922317
 31
0
  0
LINE
  8
PROFILE
 10
1.011547
 20
14.922317
 30
0
 11
1.013221
 21
14.941013
 31
0
  0
LINE
  8
PROFILE
 10
1.013221
 20
14.941013
 30
0
 11
1.015143
 21
14.959686
 31
0
  0
LINE
  8
PROFILE
 10
1.015143
 20
14.959686
 30
0
 11
1.017314
 21
14.978332
 31
0
  0
LINE
  8
PROFILE
 10
1.017314
 20
14.978332
 30
0
 11
1.019731
 21
14.996949
 31
0
  0
LINE
  8
PROFILE
 10
1.019731
 20
14.996949
 30
0
 11
1.022396
 21
15.01553
 31
0
  0
LINE
  8
PROFILE
 10
1.022396
 20
15.01553
 30
0
 11
1.025307
 21
15.034074
 31
0
  0
LINE
  8
PROFILE
 10
1.025307
 20
15.034074
 30
0
 11
1.028465
 21
15.052579
 31
0
  0
LINE
  8
PROFILE
 10
1.028465
 20
15.052579
 30
0
 11
1.031868
 21
15.071041
 31
0
  0
LINE
  8
PROFILE
 10
1.031868
 20
15.071041
 30
0
 11
1.035516
 21
15.089454
 31
0
  0
LINE
  8
PROFILE
 10
1.035516
 20
15.089454
 30
0
 11
1.039408
 21
15.107817
 31
0
  0
LINE
  8
PROFILE
 10
1.039408
 20
15.107817
 30
0
 11
1.043544
 21
15.126128
 31
0
  0
LINE
  8
PROFILE
 10
1.043544
 20
15.126128
 30
0
 11
1.047923
 21
15.144383
 31
0
  0
LINE
  8
PROFILE
 10
1.047923
 20
15.144383
 30
0
 11
1.052544
 21
15.162576
 31
0
  0
LINE
  8
PROFILE
 10
1.052544
 20
15.162576
 30
0
 11
1.057406
 21
15.180707
 31
0
  0
LINE
  8
PROFILE
 10
1.057406
 20
15.180707
 30
0
 11
1.062509
 21
15.198773
 31
0
  0
LINE
  8
PROFILE
 10
1.062509
 20
15.198773
 30
0
 11
1.067851
 21
15.216769
 31
0
  0
LINE
  8
PROFILE
 10
1.067851
 20
15.216769
 30
0
 11
1.073432
 21
15.234692
 31
0
  0
LINE
  8
PROFILE
 10
1.073432
 20
15.234692
 30
0
 11
1.07925
 21
15.252538
 31
0
  0
LINE
  8
PROFILE
 10
1.07925
 20
15.252538
 30
0
 11
1.085305
 21
15.270307
 31
0
  0
LINE
  8
PROFILE
 10
1.085305
 20
15.270307
 30
0
 11
1.091596
 21
15.287995
 31
0
  0
LINE
  8
PROFILE
 10
1.091596
 20
15.287995
 30
0
 11
1.09812
 21
15.305595
 31
0
  0
LINE
  8
PROFILE
 10
1.09812
 20
15.305595
 30
0
 11
1.104878
 21
15.323108
 31
0
  0
LINE
  8
PROFILE
 10
1.104878
 20
15.323108
 30
0
 11
1.111869
 21
15.34053
 31
0
  0
LINE
  8
PROFILE
 10
1.111869
 20
15.34053
 30
0
 11
1.11909
 21
15.357859
 31
0
  0
LINE
  8
PROFILE
 10
1.11909
 20
15.357859
 30
0
 11
1.12654
 21
15.375088
 31
0
  0
LINE
  8
PROFILE
 10
1.12654
 20
15.375088
 30
0
 11
1.134219
 21
15.392217
 31
0
  0
LINE
  8
PROFILE
 10
1.134219
 20
15.392217
 30
0
 11
1.142125
 21
15.409243
 31
0
  0
LINE
  8
PROFILE
 10
1.142125
 20
15.409243
 30
0
 11
1.150256
 21
15.426164
 31
0
  0
LINE
  8
PROFILE
 10
1.150256
 20
15.426164
 30
0
 11
1.158611
 21
15.442973
 31
0
  0
LINE
  8
PROFILE
 10
1.158611
 20
15.442973
 30
0
 11
1.167188
 21
15.45967
 31
0
  0
LINE
  8
PROFILE
 10
1.167188
 20
15.45967
 30
0
 11
1.175988
 21
15.476252
 31
0
  0
LINE
  8
PROFILE
 10
1.175988
 20
15.476252
 30
0
 11
1.185006
 21
15.492717
 31
0
  0
LINE
  8
PROFILE
 10
1.185006
 20
15.492717
 30
0
 11
1.194242
 21
15.509058
 31
0
  0
LINE
  8
PROFILE
 10
1.194242
 20
15.509058
 30
0
 11
1.203694
 21
15.525276
 31
0
  0
LINE
  8
PROFILE
 10
1.203694
 20
15.525276
 30
0
 11
1.213362
 21
15.541368
 31
0
  0
LINE
  8
PROFILE
 10
1.213362
 20
15.541368
 30
0
 11
1.223242
 21
15.55733
 31
0
  0
LINE
  8
PROFILE
 10
1.223242
 20
15.55733
 30
0
 11
1.233333
 21
15.573158
 31
0
  0
LINE
  8
PROFILE
 10
1.233333
 20
15.573158
 30
0
 11
1.24371
 21
15.588797
 31
0
  0
LINE
  8
PROFILE
 10
1.24371
 20
15.588797
 30
0
 11
1.254346
 21
15.604263
 31
0
  0
LINE
  8
PROFILE
 10
1.254346
 20
15.604263
 30
0
 11
1.265085
 21
15.61966
 31
0
  0
LINE
  8
PROFILE
 10
1.265085
 20
15.61966
 30
0
 11
1.275773
 21
15.635091
 31
0
  0
ARC
  8
PROFILE
 10
-2.464254
 20
17.132695
 30
0
 40
4.028724
 50
338.177563
 51
16.884479
  0
LINE
  8
PROFILE
 10
1.390801
 20
18.30281
 30
0
 11
0.943535
 21
22.68287
 31
0
  0
ARC
  8
PROFILE
 10
1.793745
 20
22.761634
 30
0
 40
0.853851
 50
155.1086
 51
185.292835
  0
LINE
  8
PROFILE
 10
1.019211
 20
23.12102
 30
0
 11
1.03288
 21
23.149928
 31
0
  0
LINE
  8
PROFILE
 10
1.03288
 20
23.149928
 30
0
 11
1.047357
 21
23.178552
 31
0
  0
LINE
  8
PROFILE
 10
1.047357
 20
23.178552
 30
0
 11
1.063082
 21
23.206452
 31
0
  0
LINE
  8
PROFILE
 10
1.063082
 20
23.206452
 30
0
 11
1.080496
 21
23.233186
 31
0
  0
LINE
  8
PROFILE
 10
1.080496
 20
23.233186
 30
0
 11
1.100037
 21
23.258315
 31
0
  0
LINE
  8
PROFILE
 10
1.100037
 20
23.258315
 30
0
 11
1.122493
 21
23.281405
 31
0
  0
LINE
  8
PROFILE
 10
1.122493
 20
23.281405
 30
0
 11
1.147144
 21
23.302252
 31
0
  0
LINE
  8
PROFILE
 10
1.147144
 20
23.302252
 30
0
 11
1.173063
 21
23.321801
 31
0
  0
LINE
  8
PROFILE
 10
1.173063
 20
23.321801
 30
0
 11
1.19932
 21
23.341
 31
0
  0
LINE
  8
PROFILE
 10
1.19932
 20
23.341
 30
0
 11
1.224988
 21
23.360793
 31
0
  0
LINE
  8
PROFILE
 10
1.224988
 20
23.360793
 30
0
 11
1.245057
 21
23.376724
 31
0
  0
LINE
  8
PROFILE
 10
1.245057
 20
23.376724
 30
0
 11
1.265347
 21
23.392396
 31
0
  0
LINE
  8
PROFILE
 10
1.265347
 20
23.392396
 30
0
 11
1.28557
 21
23.408143
 31
0
  0
LINE
  8
PROFILE
 10
1.28557
 20
23.408143
 30
0
 11
1.305439
 21
23.424299
 31
0
  0
LINE
  8
PROFILE
 10
1.305439
 20
23.424299
 30
0
 11
1.324667
 21
23.441199
 31
0
  0
LINE
  8
PROFILE
 10
1.324667
 20
23.441199
 30
0
 11
1.340699
 21
23.4563
 31
0
  0
LINE
  8
PROFILE
 10
1.340699
 20
23.4563
 30
0
 11
1.356369
 21
23.471819
 31
0
  0
LINE
  8
PROFILE
 10
1.356369
 20
23.471819
 30
0
 11
1.371491
 21
23.487859
 31
0
  0
LINE
  8
PROFILE
 10
1.371491
 20
23.487859
 30
0
 11
1.385877
 21
23.504521
 31
0
  0
LINE
  8
PROFILE
 10
1.385877
 20
23.504521
 30
0
 11
1.399342
 21
23.521906
 31
0
  0
LINE
  8
PROFILE
 10
1.399342
 20
23.521906
 30
0
 11
1.410571
 21
23.536908
 31
0
  0
LINE
  8
PROFILE
 10
1.410571
 20
23.536908
 30
0
 11
1.421784
 21
23.552338
 31
0
  0
LINE
  8
PROFILE
 10
1.421784
 20
23.552338
 30
0
 11
1.431691
 21
23.568375
 31
0
  0
LINE
  8
PROFILE
 10
1.431691
 20
23.568375
 30
0
 11
1.439004
 21
23.5852
 31
0
  0
LINE
  8
PROFILE
 10
1.439004
 20
23.5852
 30
0
 11
1.442433
 21
23.602991
 31
0
  0
LINE
  8
PROFILE
 10
1.442433
 20
23.602991
 30
0
 11
1.459053
 21
23.891034
 31
0
  0
ARC
  8
PROFILE
 10
0.746785
 20
22.775389
 30
0
 40
1.323629
 50
57.444359
 51
82.747
  0
ARC
  8
PROFILE
 10
1.533529
 20
24.603624
 30
0
 40
0.805839
 50
145.749239
 51
219.741923
  0
ARC
  8
PROFILE
 10
0.518281
 20
25.917842
 30
0
 40
0.928805
 50
292.081153
 51
61.899282
  0
ARC
  8
PROFILE
 10
5.554578
 20
28.848681
 30
0
 40
5.060391
 50
173.281661
 51
204.661983
  0
ENDSEC
  0
EOF
